<?xml version="1.0" encoding="utf-8"?>
<!-- Svg Vector Icons : http://www.onlinewebfonts.com/icon -->
<!DOCTYPE svg PUBLIC "-//W3C//DTD SVG 1.1//EN" "http://www.w3.org/Graphics/SVG/1.1/DTD/svg11.dtd">
<svg version="1.1" xmlns="http://www.w3.org/2000/svg" xmlns:xlink="http://www.w3.org/1999/xlink" x="0px" y="0px" viewBox="0 0 1000 1000" enable-background="new 0 0 1000 1000" xml:space="preserve">
<metadata> Svg Vector Icons : http://www.onlinewebfonts.com/icon </metadata>
<g><path d="M989.9,995.5V874.3c0-3.7,3.7-66.1-51.4-110.1c-22-22-58.7-29.4-95.4-36.7c-44-7.3-91.8-18.4-132.1-55.1c0,0-29.4-18.4-33-47.7c-3.7-22,7.3-36.7,29.4-62.4c66.1-84.4,99.1-168.8,99.1-253.2c0-168.8-135.8-304.6-304.6-304.6C333,4.5,197.2,144,197.2,309.2c0,75.9,32,159,96.1,249l-0.7,0.6c22,29.4,29.4,55.1,25.7,77.1c-3.7,29.4-29.4,44-33,47.7c-33,33-80.7,44-128.5,55.1c-36.7,7.3-69.7,18.3-95.4,36.7c-55.1,44-51.4,106.4-51.4,106.4v113.8H989.9z M79.8,800.9c18.4-14.7,47.7-22,80.7-29.4c47.7-7.3,102.8-22,143.1-58.7c0-3.7,40.4-25.7,47.7-69.7c7.1-31.8-2.9-66.9-26.5-102.2l0.8-0.6c-58.7-80.7-91.8-161.5-91.8-231.2c0-146.8,121.1-267.9,267.9-267.9c146.8,0,267.9,121.1,267.9,267.9c0,77.1-29.4,154.1-91.8,231.2l0,0c-27.4,34.9-43.8,63.7-36.7,95.4c7.3,40.4,40.4,66.1,47.7,69.7c44,40.4,99.1,51.4,146.8,62.4c33,7.3,62.4,14.7,80.7,29.4c40.4,33,36.7,77.1,36.7,80.7v77.1H43.1v-44v-33C43.1,878,39.4,834,79.8,800.9z"/></g>
</svg>